<svg width="24" height="21" viewBox="0 0 24 21" fill="none" xmlns="http://www.w3.org/2000/svg">
<path d="M19.3652 0C20.4668 0 21.5198 0.447232 22.2939 1.2373C23.0675 2.02683 23.4999 3.09404 23.5 4.2041V12.8408C23.5 13.951 23.0676 15.019 22.2939 15.8086C21.5198 16.5985 20.4666 17.0459 19.3652 17.0459H5.27637L1.26172 20.7979C1.04348 21.0016 0.72509 21.0564 0.451172 20.9375C0.177396 20.8184 0 20.5486 0 20.25V4.2041C0.000115129 3.09408 0.432568 2.02682 1.20605 1.2373C1.98016 0.447219 3.03327 4.8003e-05 4.13477 0H19.3652ZM4.13477 1.5C3.44109 1.50005 2.77262 1.7816 2.27734 2.28711C1.78171 2.79307 1.50012 3.48215 1.5 4.2041V18.5225L4.46875 15.7471C4.5728 15.6499 4.70189 15.585 4.83984 15.5586L4.98047 15.5459H19.3652C20.0589 15.5459 20.7274 15.2642 21.2227 14.7588C21.7185 14.2527 22 13.563 22 12.8408V4.2041C21.9999 3.48211 21.7183 2.79308 21.2227 2.28711C20.7273 1.78161 20.0589 1.5 19.3652 1.5H4.13477Z" fill="white"/>
<circle cx="6.5" cy="9.5" r="1.5" fill="white"/>
<circle cx="17.5" cy="9.5" r="1.5" fill="white"/>
<path d="M10.3535 9.64648C10.3274 11.3349 10.8365 11.7476 12.3535 11.6465" stroke="white"/>
<path d="M13.7637 9.64648C13.7812 11.3263 13.2623 11.7198 11.7637 11.6465" stroke="white"/>
</svg>
