<svg viewBox="0 0 24 24" xmlns="http://www.w3.org/2000/svg"><path d="m0 0h24v24h-24z" fill="none"/><path d="m23.198 3.07c-.523-.979-1.29-1.746-2.268-2.269-.977-.522-1.948-.801-4.622-.801h-8.616c-2.676 0-3.645.279-4.622.802-.978.523-1.745 1.29-2.268 2.268-.523.977-.802 1.948-.802 4.622v8.617c0 2.675.279 3.644.802 4.621.523.978 1.29 1.745 2.268 2.268s1.948.801 4.622.801h8.617c2.675 0 3.644-.279 4.622-.801.978-.523 1.745-1.29 2.268-2.268s.801-1.948.801-4.622v-8.615c0-2.675-.279-3.644-.801-4.622zm-16.927 5.743c-.552 0-1-.448-1-1v-1.542c0-.552.448-1 1-1h7.917c.552 0 1 .448 1 1v1.542c0 .552-.448 1-1 1zm0 4.958c-.552 0-1-.448-1-1v-1.542c0-.552.448-1 1-1h11.459c.552 0 1 .448 1 1v1.542c0 .552-.448 1-1 1zm0 4.958c-.552 0-1-.448-1-1v-1.542c0-.552.448-1 1-1h4.375c.552 0 1 .448 1 1v1.542c0 .552-.448 1-1 1z" fill="#8f959e"/></svg>