<svg width="150" height="38" viewBox="0 0 150 38" fill="none" xmlns="http://www.w3.org/2000/svg">
<path d="M14.5859 3.64507C14.5859 4.58746 14.9603 5.49125 15.6267 6.15761C16.293 6.82398 17.1968 7.19834 18.1392 7.19834C19.0816 7.19834 19.9854 6.82398 20.6517 6.15761C21.3181 5.49125 21.6924 4.58746 21.6924 3.64507C21.6906 3.35028 21.6262 3.05923 21.5036 2.79115C21.196 2.14633 20.8561 1.83336 20.8857 1.05904C20.9343 0.0162583 19.5975 0.00276832 18.8744 0.00276832C18.0732 -0.0233718 17.2769 0.135904 16.5474 0.468174C15.9696 0.756468 15.4816 1.19708 15.1359 1.74245C14.7902 2.28782 14.6001 2.91724 14.5859 3.56278V3.64507Z" fill="white"/>
<path d="M36.1774 8.07379C35.9211 7.68257 35.4085 7.67988 34.4547 7.85794C30.4283 8.63478 26.3454 9.08233 22.2463 9.19615C18.9976 9.3315 15.7436 9.26843 12.5025 9.00729C9.75732 8.76178 4.56234 7.92809 3.40356 7.81073C2.45801 7.63422 1.48051 7.79157 0.638116 8.2559C0.250872 8.64015 0.0234953 9.15679 0.00172139 9.70189C-0.0200525 10.247 0.165392 10.7801 0.520754 11.194C1.52454 12.5677 3.01782 13.5032 4.69185 13.807C8.97921 14.3543 13.3124 14.447 17.6193 14.0836C21.4745 13.7705 25.2953 13.1233 29.0385 12.1491C31.0373 11.5845 32.9842 10.8502 34.8581 9.95429C35.5771 9.54959 36.6037 8.77392 36.176 8.06569" fill="white"/>
<path d="M21.8655 16.7288C20.7045 16.087 19.3982 15.7541 18.0717 15.7619C16.7451 15.7696 15.4428 16.1179 14.2895 16.7733C13.3824 17.2887 12.5875 17.98 11.9512 18.8068C11.315 19.6336 10.8504 20.5792 10.5846 21.588C10.3188 22.5968 10.2573 23.6486 10.4035 24.6815C10.5498 25.7144 10.901 26.7078 11.4364 27.6031C13.2805 30.4927 15.7532 29.802 16.4493 29.0695C16.7853 28.7234 16.9799 28.2642 16.9948 27.782C17.0098 27.2999 16.8441 26.8295 16.5302 26.4632C15.886 25.7926 15.5102 24.9089 15.4739 23.9797C15.4735 23.4121 15.6472 22.858 15.9716 22.3923C16.296 21.9266 16.7555 21.5715 17.288 21.3752C17.8206 21.1789 18.4006 21.1506 18.9496 21.2943C19.4987 21.438 19.9905 21.7467 20.3586 22.1788C20.9895 23.0758 21.2637 24.1757 21.1276 25.264C20.8187 29.207 19.8501 33.0703 18.2623 36.6927C18.1544 36.9625 17.9696 37.6437 18.4822 37.9203C18.8734 38.1159 19.3348 37.9378 19.7867 37.5385C21.6407 35.7375 23.139 33.6036 24.2033 31.2481C25.5166 28.4459 26.0852 25.3525 25.8544 22.2665C25.6559 21.1003 25.1935 19.995 24.5023 19.035C23.8112 18.075 22.9097 17.2857 21.8668 16.7275" fill="white"/>
<path d="M54.684 9.38V6.72H58.604V9.38H63.84V11.9H61.096C62.328 13.384 63.112 15.484 63.14 17.92C63.112 22.652 60.452 26.18 56.644 26.18C52.724 26.208 50.12 22.652 50.12 17.92C50.12 15.484 50.904 13.384 52.136 11.9H49.56V9.38H54.684ZM56.644 11.956C55.104 11.956 53.872 14.308 53.9 17.92C53.872 21.364 55.076 23.66 56.616 23.66C58.184 23.66 59.36 21.42 59.36 17.92C59.36 14.14 58.24 11.956 56.644 11.956ZM70.14 16.94V32.06H66.36V6.72H70.14V14.42H73.78V16.94H70.14ZM80.6229 22.26H86.9789C88.6869 22.26 89.9749 22.344 91.5709 21.504V6.72H95.3509V14.42H98.9909V16.94H95.3509V32.06H91.5709V24.024C90.2549 24.612 88.4909 24.78 86.8949 24.78H78.5229C76.8709 24.78 75.6109 23.184 75.6109 21.308V7.84H79.3909V21.224C79.3909 21.868 79.8109 22.26 80.6229 22.26ZM107.29 10.64V17.528C107.29 18.256 107.71 18.62 108.354 18.62H116.81V10.64H107.29ZM120.59 8.12V21.14H113.926V25.9H123.362V28.42H100.682V25.9H110.118V21.14H106.506C104.882 21.14 103.51 19.628 103.51 17.752V8.12H120.59ZM132.137 7.448C135.805 7.448 138.913 10.864 138.913 16.24C138.913 21.56 135.917 25.06 132.137 25.06C128.189 25.06 125.333 21.476 125.333 16.24C125.333 10.948 128.329 7.448 132.137 7.448ZM132.137 9.968C130.569 9.968 129.113 12.096 129.113 16.24C129.113 20.188 130.569 22.54 132.109 22.54C133.733 22.54 135.133 20.3 135.133 16.24C135.133 12.068 133.761 9.968 132.137 9.968ZM145.773 16.94V32.06H141.993V6.72H145.773V14.42H149.413V16.94H145.773Z" fill="white"/>
</svg>
