<svg width="150" height="38" viewBox="0 0 150 38" fill="none" xmlns="http://www.w3.org/2000/svg">
<path d="M14.5859 3.64263C14.5859 4.58502 14.9603 5.4888 15.6267 6.15517C16.293 6.82154 17.1968 7.1959 18.1392 7.1959C19.0816 7.1959 19.9854 6.82154 20.6517 6.15517C21.3181 5.4888 21.6924 4.58502 21.6924 3.64263C21.6906 3.34784 21.6262 3.05679 21.5036 2.78871C21.196 2.14389 20.8561 1.83092 20.8857 1.05659C20.9343 0.0138169 19.5975 0.000326916 18.8744 0.000326916C18.0732 -0.0258132 17.2769 0.133462 16.5474 0.465732C15.9696 0.754027 15.4816 1.19464 15.1359 1.74001C14.7902 2.28538 14.6001 2.9148 14.5859 3.56034V3.64263Z" fill="#ED1651"/>
<path d="M36.1774 8.07134C35.9211 7.68013 35.4085 7.67744 34.4547 7.8555C30.4283 8.63234 26.3454 9.07989 22.2463 9.19371C18.9976 9.32906 15.7436 9.26599 12.5025 9.00485C9.75732 8.75933 4.56234 7.92565 3.40356 7.80829C2.45801 7.63178 1.48051 7.78913 0.638116 8.25346C0.250872 8.63771 0.0234953 9.15434 0.00172139 9.69944C-0.0200525 10.2445 0.165392 10.7777 0.520754 11.1916C1.52454 12.5653 3.01782 13.5008 4.69185 13.8046C8.97921 14.3519 13.3124 14.4446 17.6193 14.0811C21.4745 13.7681 25.2953 13.1208 29.0385 12.1467C31.0373 11.582 32.9842 10.8478 34.8581 9.95185C35.5771 9.54715 36.6037 8.77148 36.176 8.06325" fill="#03856E"/>
<path d="M21.8655 16.7264C20.7045 16.0846 19.3982 15.7516 18.0717 15.7594C16.7451 15.7672 15.4428 16.1155 14.2895 16.7709C13.3824 17.2862 12.5875 17.9776 11.9512 18.8044C11.315 19.6312 10.8504 20.5767 10.5846 21.5856C10.3188 22.5944 10.2573 23.6461 10.4035 24.6791C10.5498 25.712 10.901 26.7053 11.4364 27.6007C13.2805 30.4902 15.7532 29.7996 16.4493 29.067C16.7853 28.7209 16.9799 28.2618 16.9948 27.7796C17.0098 27.2974 16.8441 26.8271 16.5302 26.4608C15.886 25.7901 15.5102 24.9065 15.4739 23.9773C15.4735 23.4097 15.6472 22.8556 15.9716 22.3899C16.296 21.9241 16.7555 21.5691 17.288 21.3728C17.8206 21.1764 18.4006 21.1482 18.9496 21.2919C19.4987 21.4356 19.9905 21.7443 20.3586 22.1763C20.9895 23.0734 21.2637 24.1733 21.1276 25.2615C20.8187 29.2046 19.8501 33.0678 18.2623 36.6903C18.1544 36.9601 17.9696 37.6413 18.4822 37.9178C18.8734 38.1134 19.3348 37.9354 19.7867 37.5361C21.6407 35.7351 23.139 33.6011 24.2033 31.2457C25.5166 28.4435 26.0852 25.3501 25.8544 22.264C25.6559 21.0979 25.1935 19.9926 24.5023 19.0326C23.8112 18.0726 22.9097 17.2833 21.8668 16.725" fill="#03856E"/>
<path d="M54.684 9.37756V6.71756H58.604V9.37756H63.84V11.8976H61.096C62.328 13.3816 63.112 15.4816 63.14 17.9176C63.112 22.6496 60.452 26.1776 56.644 26.1776C52.724 26.2056 50.12 22.6496 50.12 17.9176C50.12 15.4816 50.904 13.3816 52.136 11.8976H49.56V9.37756H54.684ZM56.644 11.9536C55.104 11.9536 53.872 14.3056 53.9 17.9176C53.872 21.3616 55.076 23.6576 56.616 23.6576C58.184 23.6576 59.36 21.4176 59.36 17.9176C59.36 14.1376 58.24 11.9536 56.644 11.9536ZM70.14 16.9376V32.0576H66.36V6.71756H70.14V14.4176H73.78V16.9376H70.14ZM80.6229 22.2576H86.9789C88.6869 22.2576 89.9749 22.3416 91.5709 21.5016V6.71756H95.3509V14.4176H98.9909V16.9376H95.3509V32.0576H91.5709V24.0216C90.2549 24.6096 88.4909 24.7776 86.8949 24.7776H78.5229C76.8709 24.7776 75.6109 23.1816 75.6109 21.3056V7.83756H79.3909V21.2216C79.3909 21.8656 79.8109 22.2576 80.6229 22.2576ZM107.29 10.6376V17.5256C107.29 18.2536 107.71 18.6176 108.354 18.6176H116.81V10.6376H107.29ZM120.59 8.11756V21.1376H113.926V25.8976H123.362V28.4176H100.682V25.8976H110.118V21.1376H106.506C104.882 21.1376 103.51 19.6256 103.51 17.7496V8.11756H120.59ZM132.137 7.44556C135.805 7.44556 138.913 10.8616 138.913 16.2376C138.913 21.5576 135.917 25.0576 132.137 25.0576C128.189 25.0576 125.333 21.4736 125.333 16.2376C125.333 10.9456 128.329 7.44556 132.137 7.44556ZM132.137 9.96556C130.569 9.96556 129.113 12.0936 129.113 16.2376C129.113 20.1856 130.569 22.5376 132.109 22.5376C133.733 22.5376 135.133 20.2976 135.133 16.2376C135.133 12.0656 133.761 9.96556 132.137 9.96556ZM145.773 16.9376V32.0576H141.993V6.71756H145.773V14.4176H149.413V16.9376H145.773Z" fill="#03856E"/>
</svg>
