<svg viewBox="0 0 24 24" xmlns="http://www.w3.org/2000/svg"><path d="m23.199 3.069c-.523-.978-1.29-1.745-2.268-2.268-.978-.523-1.948-.801-4.622-.801h-8.617c-2.675 0-3.644.279-4.622.801-.978.523-1.745 1.29-2.268 2.268-.523.978-.801 1.948-.801 4.622v8.617c0 2.675.279 3.644.801 4.622.523.978 1.29 1.745 2.268 2.268s1.948.801 4.622.801h8.617c2.675 0 3.644-.279 4.622-.801.978-.523 1.745-1.29 2.268-2.268s.801-1.948.801-4.622v-8.616c0-2.675-.279-3.644-.801-4.622zm-8.581 14.583c-.235.151-.508.231-.787.231h-7.415c-.803 0-1.456-.649-1.457-1.453 0-.28.08-.553.231-.788l3.708-5.778c.433-.677 1.333-.874 2.01-.441.177.113.328.264.441.441l3.706 5.778c.434.676.239 1.576-.437 2.01zm2.188-7.291c-1.234 0-2.235-1.001-2.235-2.235s1.001-2.235 2.235-2.235 2.235 1.001 2.235 2.235-1 2.235-2.235 2.235z" fill="#b0b8c1"/></svg>