<svg width="36" height="36" viewBox="0 0 36 36" fill="none" xmlns="http://www.w3.org/2000/svg">
<rect width="36" height="36" rx="18" fill="#2D2E2F"/>
<path d="M17.9908 24C17.9908 24 23.4418 24 24.7936 23.64C25.555 23.436 26.1274 22.848 26.3284 22.122C26.6998 20.79 26.6998 17.988 26.6998 17.988C26.6998 17.988 26.6998 15.204 26.3284 13.884C26.1274 13.14 25.555 12.564 24.7936 12.366C23.4418 12 17.9908 12 17.9908 12C17.9908 12 12.5524 12 11.206 12.366C10.4572 12.564 9.8722 13.14 9.6592 13.884C9.2998 15.204 9.2998 17.988 9.2998 17.988C9.2998 17.988 9.2998 20.79 9.6592 22.122C9.8722 22.848 10.4572 23.436 11.206 23.64C12.5518 24 17.9908 24 17.9908 24Z" fill="#A7AAAB"/>
<path d="M20.7002 18L16.2002 15.45V20.55L20.7002 18Z" fill="#2D2E2F"/>
</svg>
