<svg width="50" height="45" viewBox="0 0 50 45" fill="none" xmlns="http://www.w3.org/2000/svg">
<path d="M32.2595 26.5569C32.1429 25.8732 31.9591 25.2112 31.6844 24.5986C30.8189 22.7291 29.6154 21.162 27.8052 20.1068C24.9971 18.4665 21.6001 18.4784 18.8197 20.1641C17.5628 20.9229 16.5273 22.0177 15.8594 23.3318C15.6341 23.7785 15.4503 24.2448 15.3001 24.7211C14.567 27.049 14.5946 30.1812 15.9147 32.3056C16.3455 33.0012 16.968 33.5921 17.7288 33.8885C18.4916 34.181 19.3947 34.1513 20.0804 33.7047C20.9658 33.1356 21.1219 32.0428 20.9579 31.0744C20.7504 29.8393 20.5923 28.62 21.0448 27.4087C21.193 27.0213 21.3985 26.6498 21.695 26.3613C21.8768 26.1894 22.0902 26.0451 22.3174 25.9384C22.7957 25.7032 23.3431 25.5985 23.8687 25.6854C24.7916 25.8356 25.5425 26.5471 25.9536 27.3869C26.3607 28.2228 26.4713 29.1714 26.5168 30.1022C26.7085 34.1592 25.7401 38.3625 24.7066 42.2575C24.5999 42.6607 24.4892 43.0598 24.3766 43.459C24.2857 43.7673 24.1316 44.1586 24.3252 44.4609C24.4102 44.5874 24.5446 44.6783 24.6869 44.7356C25.2896 44.9787 25.7797 44.6111 26.1828 44.204C28.5621 41.8109 30.0857 38.7241 31.1291 35.5504C31.5184 34.3667 31.8524 33.1573 32.0777 31.9301C32.384 30.2484 32.5598 28.3276 32.2595 26.5569Z" fill="#009591"/>
<path d="M49.2884 7.80451C49.2884 7.19585 48.7508 6.79469 48.1699 6.81247C47.5829 6.83619 47.0375 7.13459 46.498 7.34406C36.0343 11.3201 24.2347 12.073 13.2078 10.4862C11.3205 10.2134 9.40959 9.83402 7.51248 9.5376C6.32876 9.35184 5.15295 9.08308 3.95738 8.99415C2.93769 8.91511 1.66504 8.87954 0.840984 9.587C-0.2459 10.5277 -0.168829 12.3082 0.447731 13.486C1.18879 14.8969 2.48515 15.9542 3.83486 16.7605C5.14505 17.541 6.71016 18.375 8.2733 18.2762C12.4865 18.0074 16.6897 17.6003 20.8792 17.0569C28.021 16.1281 35.5106 15.2527 42.2197 12.4821C44.4132 11.575 46.5771 10.4466 48.4564 8.98625C48.7983 8.72737 49.2884 8.29855 49.2884 7.80451Z" fill="#009591"/>
<path d="M19.2793 4.21913C19.2793 6.49172 21.125 8.3335 23.3976 8.3335C25.6682 8.3335 27.512 6.49172 27.512 4.21913C27.512 3.88121 27.4349 3.54131 27.2886 3.235C26.9369 2.48604 26.5397 2.12045 26.5812 1.22723C26.6326 0.0158396 25.0833 3.06583e-05 24.2473 3.06583e-05C23.3383 3.06583e-05 22.37 0.126505 21.5499 0.539522C20.8958 0.871517 20.3326 1.37741 19.9354 1.99398C19.5243 2.62437 19.2991 3.37136 19.2813 4.12428C19.2793 4.15787 19.2793 4.18751 19.2793 4.21913Z" fill="#ED1651"/>
</svg>
