<svg width="14" height="12" viewBox="0 0 14 12" fill="none" xmlns="http://www.w3.org/2000/svg">
<path fill-rule="evenodd" clip-rule="evenodd" d="M13.0846 7.67864C13.025 7.61902 12.9543 7.57173 12.8764 7.53947C12.7985 7.5072 12.7151 7.49059 12.6308 7.49059C12.5465 7.49059 12.463 7.5072 12.3851 7.53947C12.3073 7.57173 12.2365 7.61902 12.1769 7.67864L10.7379 9.11772V1.33372C10.7379 1.16354 10.6702 1.00033 10.5499 0.879995C10.4296 0.759659 10.2664 0.692055 10.0962 0.692055C9.92601 0.692055 9.7628 0.759659 9.64246 0.879995C9.52212 1.00033 9.45452 1.16354 9.45452 1.33372V9.11772L8.01544 7.67864C7.95584 7.61904 7.88509 7.57176 7.80722 7.53951C7.72935 7.50726 7.64589 7.49065 7.5616 7.49065C7.47732 7.49065 7.39386 7.50726 7.31599 7.53951C7.23812 7.57176 7.16737 7.61904 7.10777 7.67864C7.04817 7.73824 7.0009 7.80899 6.96864 7.88686C6.93639 7.96473 6.91979 8.04819 6.91979 8.13247C6.91979 8.21676 6.93639 8.30022 6.96864 8.37808C7.0009 8.45595 7.04817 8.52671 7.10777 8.58631L9.64235 11.1203C9.73218 11.2101 9.84666 11.2713 9.97127 11.296C10.0959 11.3207 10.225 11.3079 10.3424 11.2591C10.4199 11.2265 10.4911 11.1798 10.55 11.1203L13.0846 8.58631C13.1442 8.52672 13.1915 8.45597 13.2238 8.3781C13.256 8.30023 13.2726 8.21676 13.2726 8.13247C13.2726 8.04818 13.256 7.96472 13.2238 7.88685C13.1915 7.80898 13.1442 7.73823 13.0846 7.67864ZM6.89077 3.41447L4.35619 0.879888C4.29673 0.82015 4.22605 0.772748 4.14822 0.740402C4.07039 0.708057 3.98693 0.691406 3.90264 0.691406C3.81836 0.691406 3.7349 0.708057 3.65707 0.740402C3.57924 0.772748 3.50856 0.82015 3.4491 0.879888L0.913936 3.41447C0.800771 3.53627 0.739244 3.6972 0.742296 3.86342C0.745347 4.02965 0.812739 4.18822 0.930298 4.30578C1.04786 4.42333 1.20642 4.49073 1.37265 4.49378C1.53888 4.49683 1.69981 4.4353 1.8216 4.32214L3.2601 2.88247V10.6671C3.2601 10.8372 3.32771 11.0004 3.44804 11.1208C3.56838 11.2411 3.73159 11.3087 3.90177 11.3087C4.07195 11.3087 4.23516 11.2411 4.3555 11.1208C4.47583 11.0004 4.54344 10.8372 4.54344 10.6671V2.88306L5.98252 4.32214C6.04199 4.38196 6.1127 4.42944 6.19059 4.46184C6.26847 4.49424 6.352 4.51091 6.43635 4.51091C6.52071 4.51091 6.60423 4.49424 6.68212 4.46184C6.76 4.42944 6.83072 4.38196 6.89019 4.32214C6.9498 4.26255 6.99709 4.1918 7.02936 4.11393C7.06163 4.03606 7.07823 3.9526 7.07823 3.86831C7.07823 3.78402 7.06163 3.70055 7.02936 3.62268C6.99709 3.54481 6.9498 3.47406 6.89019 3.41447" fill="#323D48"/>
</svg>
