<svg width="36" height="39" viewBox="0 0 36 39" fill="none" xmlns="http://www.w3.org/2000/svg">
<ellipse cx="18" cy="16" rx="18" ry="16" fill="white"/>
<path d="M6.86647 35.124C6.53901 35.3263 6.11537 35.0983 6.1039 34.7135L5.87168 26.9228C5.86022 26.538 6.26953 26.2852 6.60845 26.4676L13.4716 30.1619C13.8105 30.3443 13.8248 30.8252 13.4974 31.0275L6.86647 35.124Z" fill="white"/>
<path d="M13.46 12.74H14.83V21.07H12.92V14.47L11.16 15.3V13.86L13.46 12.74ZM17.4016 19C17.4016 18.45 17.8616 18.02 18.4316 18.02C19.0016 18.02 19.4616 18.45 19.4616 19C19.4616 19.55 19.0016 19.98 18.4316 19.98C17.8616 19.98 17.4016 19.55 17.4016 19ZM17.4016 15.13C17.4016 14.58 17.8616 14.14 18.4316 14.14C19.0016 14.14 19.4616 14.58 19.4616 15.13C19.4616 15.68 19.0016 16.1 18.4316 16.1C17.8616 16.1 17.4016 15.68 17.4016 15.13ZM23.7237 12.74H25.0937V21.07H23.1837V14.47L21.4237 15.3V13.86L23.7237 12.74Z" fill="#009591"/>
</svg>
