<svg width="40" height="49" viewBox="0 0 40 49" fill="none" xmlns="http://www.w3.org/2000/svg">
<path d="M20 0C9.5 0 0 8.01829 0 20.4193C0 28.3379 6.125 37.6511 18.35 48.3837C19.3 49.2054 20.725 49.2054 21.675 48.3837C33.875 37.6511 40 28.3379 40 20.4193C40 8.01829 30.5 0 20 0ZM20 24.9015C17.25 24.9015 15 22.6604 15 19.9212C15 17.1821 17.25 14.9409 20 14.9409C22.75 14.9409 25 17.1821 25 19.9212C25 22.6604 22.75 24.9015 20 24.9015Z" fill="#009178"/>
<circle cx="20.5" cy="19.5" r="8.5" fill="#009178"/>
<path d="M18.041 10.0599C18.041 10.5794 18.2474 11.0777 18.6148 11.4451C18.9822 11.8125 19.4804 12.0188 20 12.0188C20.5195 12.0188 21.0178 11.8125 21.3852 11.4451C21.7525 11.0777 21.9589 10.5794 21.9589 10.0599C21.9579 9.89735 21.9224 9.73689 21.8548 9.5891C21.6853 9.2336 21.4978 9.06105 21.5142 8.63416C21.541 8.05926 20.8039 8.05182 20.4053 8.05182C19.9636 8.03741 19.5246 8.12522 19.1224 8.3084C18.8039 8.46734 18.5348 8.71026 18.3442 9.01093C18.1536 9.3116 18.0488 9.65861 18.041 10.0145V10.0599Z" fill="white"/>
<path d="M29.9451 12.5013C29.8038 12.2856 29.5212 12.2841 28.9954 12.3823C26.7756 12.8106 24.5246 13.0573 22.2647 13.1201C20.4736 13.1947 18.6797 13.1599 16.8928 13.0159C15.3794 12.8806 12.5153 12.421 11.8764 12.3562C11.3551 12.2589 10.8162 12.3457 10.3518 12.6017C10.1383 12.8135 10.013 13.0983 10.0009 13.3989C9.98894 13.6994 10.0912 13.9933 10.2871 14.2215C10.8405 14.9789 11.6638 15.4946 12.5867 15.6621C14.9504 15.9638 17.3393 16.0149 19.7138 15.8146C21.8392 15.642 23.9457 15.2851 26.0094 14.7481C27.1113 14.4368 28.1847 14.032 29.2178 13.538C29.6142 13.3149 30.1802 12.8873 29.9444 12.4968" fill="white"/>
<path d="M22.0551 17.2729C21.4151 16.9191 20.6949 16.7355 19.9636 16.7398C19.2322 16.7441 18.5143 16.9361 17.8784 17.2975C17.3783 17.5816 16.94 17.9627 16.5893 18.4186C16.2385 18.8744 15.9824 19.3957 15.8358 19.9519C15.6893 20.508 15.6554 21.0879 15.736 21.6574C15.8167 22.2268 16.0103 22.7745 16.3054 23.2681C17.3221 24.8611 18.6853 24.4804 19.0691 24.0765C19.2544 23.8857 19.3616 23.6326 19.3699 23.3667C19.3781 23.1009 19.2868 22.8416 19.1137 22.6396C18.7586 22.2699 18.5514 21.7827 18.5314 21.2704C18.5311 20.9575 18.6269 20.6521 18.8058 20.3953C18.9846 20.1385 19.2379 19.9428 19.5315 19.8345C19.8251 19.7263 20.1449 19.7107 20.4476 19.79C20.7503 19.8692 21.0215 20.0394 21.2244 20.2776C21.5722 20.7721 21.7234 21.3785 21.6483 21.9785C21.478 24.1523 20.9441 26.2822 20.0687 28.2793C20.0092 28.428 19.9073 28.8036 20.1899 28.9561C20.4056 29.0639 20.6599 28.9658 20.9091 28.7456C21.9312 27.7527 22.7573 26.5762 23.344 25.2776C24.068 23.7327 24.3816 22.0273 24.2543 20.3259C24.1449 19.683 23.8899 19.0736 23.5089 18.5444C23.1279 18.0151 22.6309 17.5799 22.0559 17.2722" fill="white"/>
</svg>
