<svg viewBox="0 0 24 24" xmlns="http://www.w3.org/2000/svg"><path d="m17.112 2.547c-2.429 0-3.889 1.281-4.685 2.356-.046.065-.111.121-.186.16-.149.075-.335.075-.482 0-.075-.038-.138-.093-.192-.165-.795-1.071-2.253-2.35-4.679-2.35-1.93 0-3.722 1.067-4.796 2.854-1.276 2.123-1.261 4.855.042 7.308.86 1.619 2.293 3.323 4.259 5.066 1.609 1.426 3.23 2.574 4.306 3.286.391.257.841.393 1.302.393s.911-.136 1.299-.393c1.08-.713 2.705-1.863 4.306-3.286 1.964-1.741 3.398-3.446 4.26-5.066 1.303-2.454 1.317-5.186.041-7.308-1.073-1.786-2.866-2.854-4.795-2.854zm3.131 9.298c-.758 1.425-2.055 2.957-3.856 4.553-1.528 1.358-3.074 2.45-4.1 3.129-.086.057-.186.084-.285.084s-.2-.027-.287-.084c-1.034-.684-2.583-1.783-4.1-3.129-1.803-1.599-3.1-3.131-3.855-4.554-1.012-1.905-1.045-3.909-.091-5.497.739-1.228 1.943-1.962 3.221-1.962 1.335 0 2.412.538 3.198 1.6.219.3.509.547.839.715.663.337 1.485.337 2.148 0 .329-.166.617-.412.834-.708.791-1.066 1.87-1.606 3.204-1.606 1.277 0 2.48.734 3.22 1.962.954 1.59.921 3.593-.09 5.498z" fill="#b0b8c1"/></svg>