<svg width="40" height="40" viewBox="0 0 40 40" fill="none" xmlns="http://www.w3.org/2000/svg">
<circle cx="20" cy="20" r="20" fill="#0FCEB4"/>
<path d="M16.94 19.86L18.62 12.7H21.92L23.6 19.86H25.66L27.28 12.7H30.42L28.7 19.86H30.52V21.88H28.24L26.5 29.16H22.76L21.04 21.88H19.22L17.48 29.16H13.7L11.92 21.88H9.6V19.86H11.44L9.7 12.7H13.22L14.88 19.86H16.94ZM25.2 21.88H24.04L24.64 24.54L25.2 21.88ZM19.66 19.86H20.54L20.1 17.58L19.66 19.86ZM16.5 21.88H15.3L15.92 24.6L16.5 21.88Z" fill="white"/>
</svg>
