<svg width="43" height="43" viewBox="0 0 43 43" fill="none" xmlns="http://www.w3.org/2000/svg">
<path d="M10.8273 0C12.0647 0 17.0144 11.1367 17.0144 12.3741C17.0144 14.8489 13.3022 17.3237 12.0647 19.7986C10.8273 22.2734 13.3022 24.7482 15.777 27.223C16.7422 28.1882 20.7266 32.1727 23.2014 30.9353C25.6763 29.6978 28.1511 25.9856 30.6259 25.9856C31.8633 25.9856 43 30.9353 43 32.1727C43 37.1223 39.2878 40.8345 35.5755 42.0719C31.8633 43.3094 29.3885 43.3094 24.4388 42.0719C19.4892 40.8345 15.777 39.5971 9.58993 33.4101C3.40288 27.223 2.16547 23.5108 0.928058 18.5612C-0.309353 13.6115 -0.309353 11.1367 0.928058 7.42446C2.16547 3.71223 5.8777 0 10.8273 0Z" fill="#4A4A4A"/>
</svg>
