<svg viewBox="0 0 24 24" xmlns="http://www.w3.org/2000/svg"><path d="m4.932 22.071c-.36 0-.712-.138-.961-.388-.314-.314-.434-.757-.324-1.192l.702-3.252c-1.617-1.681-2.495-3.806-2.495-6.043-.019-5.11 4.537-9.267 10.136-9.267s10.154 4.158 10.154 9.267-4.555 9.267-10.154 9.267c-1.016 0-1.876-.102-2.68-.305l-4.047 1.876c-.111.028-.222.037-.342.037h.01zm.332-1.219v.019zm6.727-17.26c-4.684 0-8.491 3.409-8.491 7.604 0 1.921.822 3.751 2.31 5.165l.342.324-.74 3.465 3.761-1.755.305.093c.74.222 1.516.324 2.513.324 4.684 0 8.491-3.409 8.491-7.605s-3.806-7.614-8.491-7.614z" fill="#b0b8c1"/></svg>