<svg width="36" height="36" viewBox="0 0 36 36" fill="none" xmlns="http://www.w3.org/2000/svg">
<rect width="36" height="36" rx="18" fill="#2D2E2F"/>
<path fill-rule="evenodd" clip-rule="evenodd" d="M18.0002 10C13.3054 10 9.5 13.5198 9.5 17.8622C9.5 21.0689 10.8432 22.6 12.6829 23.9956L12.6915 23.9997V27.763C12.6915 27.9411 12.8942 28.0423 13.0367 27.9364L16.2597 25.5424L16.3294 25.5723C16.8695 25.6718 17.4282 25.7245 18 25.7245C22.6946 25.7245 26.5 22.2043 26.5 17.8622C26.5 13.52 22.6946 10 18.0002 10ZM18.2728 17.2666H16.8434L16.8256 17.1888C16.6506 16.4208 15.9595 15.9353 15.1505 15.9353C14.5746 15.9353 14.1011 16.1402 13.7716 16.4786C13.4417 16.8173 13.2502 17.2959 13.2502 17.8532C13.2502 18.9568 14.1116 19.7544 15.1505 19.7544C15.9437 19.7544 16.6135 19.2812 16.8147 18.5586L16.835 18.4854H18.2653L18.241 18.6053C17.9304 20.1339 16.736 21.14 15.1505 21.14C13.3108 21.14 11.8477 19.765 11.8477 17.8532C11.8477 15.9416 13.3106 14.5664 15.1505 14.5664C16.7523 14.5664 17.9547 15.5932 18.2502 17.1479L18.2728 17.2666ZM22.0413 21.0177V18.3699C22.0413 18.0962 21.9619 17.8986 21.8339 17.7697C21.7058 17.6407 21.517 17.5682 21.2745 17.5682C21.002 17.5682 20.7906 17.651 20.6465 17.8064C20.5015 17.9628 20.4117 18.2067 20.4117 18.5537V21.0179H19.0818V14.5864H20.4117V16.7495C20.7045 16.4574 21.1121 16.3177 21.616 16.3177C22.1217 16.3177 22.5429 16.4841 22.87 16.8299C23.2073 17.1768 23.3709 17.6416 23.3709 18.2301V21.0177H22.0413ZM22.1419 18.3699V20.9177L22.1413 20.9177V18.3699C22.1413 17.7989 21.8171 17.4849 21.3152 17.4689C21.8175 17.4846 22.1419 17.7987 22.1419 18.3699ZM19.1824 14.6864V20.9179H19.1818V14.6864L19.1824 14.6864ZM20.3123 17.0302V17.0293C20.3433 16.9824 20.3764 16.9382 20.4117 16.8968C20.6854 16.5754 21.0892 16.4177 21.616 16.4177L21.6165 16.4177C21.0214 16.4177 20.5832 16.619 20.3123 17.0302ZM15.1511 19.8544C15.9842 19.8544 16.6971 19.3559 16.9116 18.5854L16.911 18.5854C16.6965 19.3559 15.9836 19.8544 15.1505 19.8544L15.1511 19.8544ZM11.9482 17.8532C11.9482 19.6805 13.3234 21.0008 15.0728 21.0391C13.3231 21.0011 11.9477 19.6807 11.9477 17.8532C11.9477 15.9988 13.3638 14.6664 15.1505 14.6664L15.1511 14.6664C13.3644 14.6664 11.9482 15.9988 11.9482 17.8532ZM16.9231 17.1666C16.7381 16.3547 16.0136 15.8454 15.1756 15.8354C16.0139 15.8452 16.7387 16.3545 16.9237 17.1666H16.9231Z" fill="#A7AAAB"/>
</svg>
