<svg width="36" height="36" viewBox="0 0 36 36" fill="none" xmlns="http://www.w3.org/2000/svg">
<rect width="36" height="36" rx="18" fill="#2D2E2F"/>
<path d="M23.4287 23.4285H21.3543V20.18C21.3543 19.4054 21.3405 18.4081 20.2754 18.4081C19.195 18.4081 19.0297 19.2522 19.0297 20.1236V23.4283H16.9554V16.748H18.9467V17.6609H18.9746C19.3806 16.9667 20.1356 16.552 20.9394 16.5818C23.0419 16.5818 23.4295 17.9648 23.4295 19.7638L23.4287 23.4285ZM14.6148 15.8349C13.9499 15.8349 13.411 15.2962 13.4108 14.6313C13.4106 13.9664 13.9495 13.4275 14.6144 13.4273C15.2792 13.4273 15.8181 13.966 15.8183 14.6309C15.8186 15.2957 15.2797 15.8346 14.6148 15.8349ZM15.652 23.4285H13.5754V16.748H15.652V23.4285ZM24.4628 11.501H12.5331C11.9693 11.4947 11.5069 11.9463 11.5 12.51V24.4893C11.5067 25.0535 11.9689 25.5055 12.5331 25.4994H24.4628C25.0281 25.5066 25.4922 25.0545 25.5 24.4893V12.5092C25.492 11.9443 25.0279 11.4927 24.4628 11.5001" fill="#A7AAAB"/>
</svg>
