<svg width="27" height="8" viewBox="0 0 27 8" fill="none" xmlns="http://www.w3.org/2000/svg">
<g clip-path="url(#clip0_161_954)">
<path d="M1.75159 7.58342C1.2448 7.80293 0.656024 7.57004 0.436516 7.06325C0.217009 6.55646 0.449896 5.96768 0.956685 5.74818L12.8858 0.581276C13.3926 0.361769 13.9813 0.594656 14.2008 1.10144C14.4204 1.60823 14.1875 2.19701 13.6807 2.41652L1.75159 7.58342Z" fill="#8F8F8F"/>
<path d="M24.8861 7.58342C25.3929 7.80293 25.9817 7.57004 26.2012 7.06325C26.4207 6.55646 26.1878 5.96768 25.681 5.74818L13.7519 0.581288C13.2451 0.36178 12.6564 0.594668 12.4368 1.10146C12.2173 1.60825 12.4502 2.19702 12.957 2.41653L24.8861 7.58342Z" fill="#8F8F8F"/>
</g>
<defs>
<clipPath id="clip0_161_954">
<rect width="27" height="8" fill="white" transform="matrix(1 0 0 -1 0 8)"/>
</clipPath>
</defs>
</svg>
